Coordinates
version=1
nRows=8
nColumns=40
inDegrees=yes

Units are S.I. units (second, meters, Newtons, ...)
Angles are in degrees.

endheader
time	pelvis_tilt	pelvis_list	pelvis_rotation	pelvis_tx	pelvis_ty	pelvis_tz	hip_flexion_r	hip_adduction_r	hip_rotation_r	knee_angle_r	knee_angle_r_beta	ankle_angle_r	subtalar_angle_r	mtp_angle_r	hip_flexion_l	hip_adduction_l	hip_rotation_l	knee_angle_l	knee_angle_l_beta	ankle_angle_l	subtalar_angle_l	mtp_angle_l	lumbar_extension	lumbar_bending	lumbar_rotation	arm_flex_r	arm_add_r	arm_rot_r	elbow_flex_r	pro_sup_r	wrist_flex_r	wrist_dev_r	arm_flex_l	arm_add_l	arm_rot_l	elbow_flex_l	pro_sup_l	wrist_flex_l	wrist_dev_l
     41.56000000	     -2.34106146	     -6.66143036	      3.40101156	      1.05866237	      0.93227314	      0.51713761	     11.70212535	      4.72545066	    -20.76925295	     14.44364202	     14.44364202	      8.60054736	      6.33296576	     -6.35038434	     34.89358890	    -15.89403972	     -0.36140344	     61.80957182	     61.80957182	     10.07590362	    -17.60225493	     11.17962021	    -14.22313909	      8.65585085	      6.07421003	     16.69628425	    -14.27295441	     -3.72177307	     34.10451985	     45.21451512	      0.00000000	      0.00000000	     -3.96393400	     -7.81552759	     -2.48588442	     59.04538158	     45.86695094	      0.00000000	      0.00000000
     41.57185714	     -2.40595695	     -6.61272815	      3.55798830	      1.05724253	      0.93221813	      0.51792913	     11.16791709	      4.77581103	    -20.97717603	     14.28649580	     14.28649580	      9.02647687	      6.62851752	     -6.58415981	     36.06863159	    -15.63641550	     -0.23709188	     59.15829602	     59.15829602	      9.92455639	    -17.55420214	     11.17525181	    -14.17611634	      8.66124430	      5.68031981	     19.34070724	    -13.96179001	     -3.68080428	     35.59020348	     45.18084145	      0.00000000	      0.00000000	     -5.69304708	     -8.03060503	     -2.40682999	     56.45892633	     45.83190606	      0.00000000	      0.00000000
     41.58371429	     -2.43369893	     -6.62456675	      3.67990502	      1.05590697	      0.93222874	      0.51873044	     10.51246838	      4.94028343	    -21.13163141	     13.93680852	     13.93680852	      9.32042571	      6.95471307	     -6.88755604	     36.89439641	    -15.46443968	     -0.20210088	     56.05095711	     56.05095711	      9.25336021	    -17.39795890	     10.03011388	    -14.11577968	      8.79554575	      6.02698753	     21.63969929	    -14.25283989	     -2.83647223	     36.82351243	     45.13650596	      0.00000000	      0.00000000	     -5.75923545	     -7.43601374	     -3.53509858	     50.54021371	     45.92912161	      0.00000000	      0.00000000
     41.59557143	     -2.43883397	     -6.64690536	      3.77427171	      1.05466492	      0.93221046	      0.51955045	      9.82598450	      5.15306168	    -21.09040080	     13.56041017	     13.56041017	      9.63128129	      7.01056937	     -7.04449521	     37.46109740	    -15.23954108	     -0.09772650	     52.67714935	     52.67714935	      8.67152786	    -17.13482602	      9.48724677	    -14.13372966	      8.90837018	      6.12458912	     23.93437934	    -14.34200858	     -2.05997265	     38.55311689	     45.08055596	      0.00000000	      0.00000000	     -6.43592031	     -7.14415278	     -4.44264301	     46.37947501	     46.02482924	      0.00000000	      0.00000000
     41.60742857	     -2.41213259	     -6.61712933	      3.82680334	      1.05350761	      0.93219451	      0.52030415	      9.11014707	      5.30722075	    -21.00541045	     13.20220323	     13.20220323	      9.98805466	      7.09028207	     -7.11839107	     37.76944042	    -14.93398040	      0.00653731	     49.12055042	     49.12055042	      8.41476274	    -16.59223075	      9.91949072	    -14.21996024	      8.90910111	      6.09443764	     26.33202363	    -14.13516171	     -1.94999083	     40.03535667	     45.04216515	      0.00000000	      0.00000000	     -7.83815145	     -7.27511829	     -4.54898274	     44.35822102	     46.01366694	      0.00000000	      0.00000000
     41.61928571	     -2.39706365	     -6.63136030	      3.84673917	      1.05244268	      0.93216321	      0.52104744	      8.37728575	      5.50875492	    -20.94359277	     12.78922669	     12.78922669	     10.30307407	      7.29738368	     -7.20700124	     37.90770036	    -14.68343507	      0.11126348	     45.39256321	     45.39256321	      8.10294611	    -15.74211397	     10.34397316	    -14.27288671	      8.98976465	      6.02556051	     28.61529525	    -13.82341412	     -1.69100236	     41.60098297	     44.99278966	      0.00000000	      0.00000000	     -8.91926928	     -7.35700009	     -4.75677855	     41.68375928	     46.01276859	      0.00000000	      0.00000000
     41.63114286	     -2.47874531	     -6.72579362	      3.78403351	      1.05144661	      0.93190268	      0.52174772	      7.76687234	      5.75688603	    -20.94505554	     12.41265261	     12.41265261	     10.58217484	      7.73133527	     -7.42884054	     37.99238057	    -14.53217686	      0.23533988	     41.56373078	     41.56373078	      7.67247948	    -14.68732454	     10.15998037	    -14.18797061	      9.15660774	      6.78227967	     30.23502113	    -14.49361461	     -0.34208881	     44.02411279	     44.89049520	      0.00000000	      0.00000000	     -8.20486299	     -6.87518723	     -6.27648038	     35.71184970	     46.18985758	      0.00000000	      0.00000000
     41.64300000	     -2.58972041	     -6.74878373	      3.73056540	      1.05055773	      0.93160876	      0.52235543	      7.16276862	      5.94747872	    -20.83621458	     11.99728053	     11.99728053	     10.89451241	      7.92871401	     -7.46782391	     37.96394613	    -14.31901615	      0.25374634	     37.69866065	     37.69866065	      7.47413188	    -13.25198749	     10.73831834	    -14.09827964	      9.21123689	      6.73486686	     32.36788235	    -14.12070479	     -0.27660343	     45.67136427	     44.84604721	      0.00000000	      0.00000000	     -9.60212272	     -7.05879016	     -6.43018739	     34.46021602	     46.18728233	      0.00000000	      0.00000000
